<svg xmlns="http://www.w3.org/2000/svg" width="34" height="34" viewBox="0 0 34 34">
  <g id="グループ_11134" data-name="グループ 11134" transform="translate(-2410 -2361)">
    <g id="icon-instagram" transform="translate(1630 2362)">
      <rect id="長方形_223" data-name="長方形 223" width="32" height="32" transform="translate(781)" fill="none"/>
      <g id="Icon_feather-instagram" data-name="Icon feather-instagram" transform="translate(785 4)">
        <path id="パス_19" data-name="パス 19" d="M9,3H21a6,6,0,0,1,6,6V21a6,6,0,0,1-6,6H9a6,6,0,0,1-6-6V9A6,6,0,0,1,9,3Z" transform="translate(-3 -3)" fill="none" stroke="#1a1a1a" stroke-linecap="round" stroke-linejoin="round" stroke-width="3"/>
        <path id="パス_20" data-name="パス 20" d="M21.613,16.031a4.8,4.8,0,1,1-4.044-4.044,4.8,4.8,0,0,1,4.044,4.044Z" transform="translate(-4.813 -4.787)" fill="none" stroke="#1a1a1a" stroke-linecap="round" stroke-linejoin="round" stroke-width="3"/>
        <path id="パス_21" data-name="パス 21" d="M26.25,9.75h0" transform="translate(-7.65 -4.35)" fill="none" stroke="#1a1a1a" stroke-linecap="round" stroke-linejoin="round" stroke-width="3"/>
      </g>
    </g>
    <g id="長方形_23458" data-name="長方形 23458" transform="translate(2410 2361)" fill="#fff" stroke="#707070" stroke-width="1" opacity="0">
      <rect width="34" height="34" stroke="none"/>
      <rect x="0.5" y="0.5" width="33" height="33" fill="none"/>
    </g>
  </g>
</svg>
